<?xml version="1.0" standalone="no"?><!DOCTYPE svg PUBLIC "-//W3C//DTD SVG 1.1//EN" "http://www.w3.org/Graphics/SVG/1.1/DTD/svg11.dtd"><svg t="1592023697938" class="icon" viewBox="0 0 1024 1024" version="1.1" xmlns="http://www.w3.org/2000/svg" p-id="1710" xmlns:xlink="http://www.w3.org/1999/xlink" width="400" height="400"><defs><style type="text/css"></style></defs><path d="M995.39376925 546.33963747c0 0-47.86143573-78.38734791-101.0195786-78.38734791-53.11619982 0-108.92188103 81.03605021-108.92188103 81.0360502s-50.38698951-82.49263901-106.31500459-80.95577656c-40.46559687 1.11195705-71.56286578 35.13731527-90.02584178 72.89304178L589.11146325 850.54668458c-3.70147328 42.54329173-6.4598107 57.91786211-13.65653731 79.22912142-7.5682725 22.41272946-22.23773355 40.08088576-36.01077931 52.2349295-16.27285049 14.36036437-33.67629938 25.10687118-52.17189888 31.20305834-18.53404729 6.10084864-34.24567637 7.3921115-58.63741895 7.39211151-22.18542194 0-42.04207218-3.37175438-59.61434226-10.06994091-17.53382229-6.69818653-32.33610297-16.28613291-44.41266972-28.72434119-12.07540167-12.4370432-21.34236615-27.39940693-27.80217685-44.97086123-6.45864562-17.57157035-9.70829938-45.73352619-9.70829938-67.43718456l0-29.84670322 84.6907995 0c0 28.03973803-0.20144355 73.3330944 10.02846436 87.61668039 10.27068587 14.23931278 25.89143837 20.58471197 46.8182198 21.37999815 19.03351808 0.72421603 34.16994589-9.17236053 34.16994588-9.17236054s13.5646117-12.00036978 17.05765206-22.47902321c3.04354987-9.13158258 4.05659079-25.23607837 4.05659079-25.23607837s2.36710229-24.79136541 2.36710229-38.95145244L486.28611527 535.94950428c-18.97642894-21.42182514-49.83625387-70.47246279-94.158047-69.32217514-62.23531577 1.61492309-114.25808384 79.71228103-114.25808384 79.71228102s-63.78965447-79.71228103-106.31500459-79.71228102c-42.52639801 0-103.62645504 79.71228103-103.62645504 79.71228102S49.31525746 129.12382976 471.8842789 86.60034446l61.1023872-85.00863886 58.45112149 85.00863886C1027.28748942 113.19863978 995.39376925 546.33963747 995.39376925 546.33963747z" p-id="1711"></path></svg>